<svg version="1.1" xmlns="http://www.w3.org/2000/svg" viewBox="0 0 777.9450037262228 768.1074299019041" width="777.9450037262228" height="768.1074299019041">
  <!-- svg-source:excalidraw -->
  
  <defs>
    <style class="style-fonts">
      @font-face {
        font-family: "Virgil";
        src: url("https://excalidraw.com/Virgil.woff2");
      }
      @font-face {
        font-family: "Cascadia";
        src: url("https://excalidraw.com/Cascadia.woff2");
      }
      @font-face {
        font-family: "Assistant";
        src: url("https://excalidraw.com/Assistant-Regular.woff2");
      }
    </style>
    
  </defs>
  <g mask="url(#mask-cxLAcZKMwdoTh1HrOERoS)" stroke-linecap="round"><g transform="translate(64.33559467414834 171.52094319391938) rotate(0 83.87080278370397 140.21100878090118)"><path d="M-0.6 1.03 C2.6 16.02, -9.52 43.74, 18.72 90.1 C46.95 136.47, 143.97 247.59, 168.79 279.23" stroke="#1971c2" stroke-width="2.5" fill="none" stroke-dasharray="1.5 8"></path></g><g transform="translate(64.33559467414834 171.52094319391938) rotate(0 83.87080278370397 140.21100878090118)"><path d="M147.24 266.56 C154.58 268.74, 159.08 275.01, 168.79 279.23" stroke="#1971c2" stroke-width="2.5" fill="none" stroke-dasharray="1.5 6"></path></g><g transform="translate(64.33559467414834 171.52094319391938) rotate(0 83.87080278370397 140.21100878090118)"><path d="M160.43 255.67 C164.36 260.62, 165.43 269.71, 168.79 279.23" stroke="#1971c2" stroke-width="2.5" fill="none" stroke-dasharray="1.5 6"></path></g></g><mask id="mask-cxLAcZKMwdoTh1HrOERoS"><rect x="0" y="0" fill="#fff" width="332.0772002415563" height="551.9429607557217"></rect><rect x="31.047717045074563" y="241.25480052387456" fill="#000" width="105.47224426269531" height="40" opacity="1"></rect></mask><g transform="translate(31.047717045074563 241.25480052387456) rotate(0 117.38375796661623 70.39575278876634)"><text x="52.736122131347656" y="0" font-family="Virgil, Segoe UI Emoji" font-size="16px" fill="#1971c2" text-anchor="middle" style="white-space: pre;" direction="ltr" dominant-baseline="text-before-edge">progressive </text><text x="52.736122131347656" y="20" font-family="Virgil, Segoe UI Emoji" font-size="16px" fill="#1971c2" text-anchor="middle" style="white-space: pre;" direction="ltr" dominant-baseline="text-before-edge">simplifications</text></g><g stroke-linecap="round" transform="translate(244.30773951111968 10) rotate(0 47.85805724264276 30)"><path d="M15 0 C36.61 -2.09, 58.76 1.27, 80.72 0 M15 0 C41.82 0.24, 66.11 -0.63, 80.72 0 M80.72 0 C89.67 -1.55, 97.16 5.45, 95.72 15 M80.72 0 C89.8 -2.1, 95.66 4.15, 95.72 15 M95.72 15 C97.04 24.43, 96.61 34.21, 95.72 45 M95.72 15 C96.83 21.96, 94.85 29.29, 95.72 45 M95.72 45 C96.04 53.88, 89.59 60.99, 80.72 60 M95.72 45 C97.21 57.2, 90.71 62.23, 80.72 60 M80.72 60 C64.88 58.54, 45.34 59.27, 15 60 M80.72 60 C67.19 60.37, 51.42 59.87, 15 60 M15 60 C4.19 60.15, 1.57 56.58, 0 45 M15 60 C3.26 59.2, 1.33 52.83, 0 45 M0 45 C1.3 37.99, -0.85 28.52, 0 15 M0 45 C1.05 36.96, -0.15 31.16, 0 15 M0 15 C0.89 4.82, 3.39 -0.92, 15 0 M0 15 C-1.69 6.28, 6.67 -1.03, 15 0" stroke="#e03131" stroke-width="4" fill="none"></path></g><g transform="translate(253.85583734214134 15) rotate(0 38.309959411621094 25)"><text x="38.309959411621094" y="0" font-family="Virgil, Segoe UI Emoji" font-size="20px" fill="#e03131" text-anchor="middle" style="white-space: pre;" direction="ltr" dominant-baseline="text-before-edge">Decision</text><text x="38.309959411621094" y="25" font-family="Virgil, Segoe UI Emoji" font-size="20px" fill="#e03131" text-anchor="middle" style="white-space: pre;" direction="ltr" dominant-baseline="text-before-edge">Theory</text></g><g stroke-linecap="round" transform="translate(244.80410627417524 250.69929094525355) rotate(0 47.85805724264276 30)"><path d="M15 0 C40.73 -1.47, 62.41 0.93, 80.72 0 M15 0 C32.39 0.9, 49.53 0.27, 80.72 0 M80.72 0 C89.28 -0.52, 94.9 6.49, 95.72 15 M80.72 0 C89.3 -0.7, 96.24 6.84, 95.72 15 M95.72 15 C95.88 21.9, 93.76 29.66, 95.72 45 M95.72 15 C95.59 25.16, 95.08 35.48, 95.72 45 M95.72 45 C96.62 53.14, 90.09 61.35, 80.72 60 M95.72 45 C95.01 56.87, 92.59 61.33, 80.72 60 M80.72 60 C57.24 61.21, 31.99 60.78, 15 60 M80.72 60 C57.59 60.35, 33.56 60.42, 15 60 M15 60 C6.31 58.12, -0.78 53.59, 0 45 M15 60 C6.07 60.09, -1.34 53.16, 0 45 M0 45 C1.1 40.33, 1.56 33.3, 0 15 M0 45 C-0.61 34.69, 0.94 24.34, 0 15 M0 15 C-1.45 4.11, 3.89 0.34, 15 0 M0 15 C0.42 4.9, 6.32 -0.98, 15 0" stroke="#1e1e1e" stroke-width="2" fill="none"></path></g><g transform="translate(253.8022010534391 255.69929094525355) rotate(0 38.859962463378906 25)"><text x="38.859962463378906" y="0" font-family="Virgil, Segoe UI Emoji" font-size="20px" fill="#1e1e1e" text-anchor="middle" style="white-space: pre;" direction="ltr" dominant-baseline="text-before-edge">Modeling</text><text x="38.859962463378906" y="25" font-family="Virgil, Segoe UI Emoji" font-size="20px" fill="#1e1e1e" text-anchor="middle" style="white-space: pre;" direction="ltr" dominant-baseline="text-before-edge">Games</text></g><g mask="url(#mask-oUnoE_S6tu7mCtEa3okfi)" stroke-linecap="round"><g transform="translate(292.7331074063479 83.95860002910422) rotate(0 0.5218203403848918 76.39104544352261)"><path d="M-0.48 0.88 C-0.58 26.2, -0.01 127.17, 0.19 152.51 M1.47 0.29 C1.68 25.75, 2.73 128.23, 2.45 153.91" stroke="#1e1e1e" stroke-width="2" fill="none"></path></g><g transform="translate(292.7331074063479 83.95860002910422) rotate(0 0.5218203403848918 76.39104544352261)"><path d="M-6.13 130.43 C-1.42 137.64, -0.18 147.1, 2.45 153.91 M-6.13 130.43 C-4.37 138.09, -1.49 144.11, 2.45 153.91" stroke="#1e1e1e" stroke-width="2" fill="none"></path></g><g transform="translate(292.7331074063479 83.95860002910422) rotate(0 0.5218203403848918 76.39104544352261)"><path d="M10.97 130.41 C9.42 137.56, 4.38 147.02, 2.45 153.91 M10.97 130.41 C7.37 138.2, 4.88 144.23, 2.45 153.91" stroke="#1e1e1e" stroke-width="2" fill="none"></path></g></g><mask id="mask-oUnoE_S6tu7mCtEa3okfi"><rect x="0" y="0" fill="#fff" width="393.7767480871177" height="336.74069091614945"></rect><rect x="243.97482215591253" y="150.34964547262678" fill="#000" width="98.56021118164062" height="20" opacity="1"></rect></mask><g transform="translate(243.97482215591256 150.34964547262678) rotate(0 49.76102886160285 10.710300882505265)"><text x="49.28010559082031" y="0" font-family="Virgil, Segoe UI Emoji" font-size="16px" fill="#1e1e1e" text-anchor="middle" style="white-space: pre;" direction="ltr" dominant-baseline="text-before-edge">Multi Agents</text></g><g mask="url(#mask-hcXsef9JSybObJ-A8tUiV)" stroke-linecap="round"><g transform="translate(242.16681778267258 246.22205223983474) rotate(0 -48.321621884839075 -37.85704505345666)"><path d="M0.15 0.28 C-15.7 -12.34, -79.98 -64.05, -96.16 -76.7 M-1.23 -0.62 C-17.1 -13.03, -80.74 -63.4, -96.85 -75.67" stroke="#1971c2" stroke-width="2" fill="none"></path></g><g transform="translate(242.16681778267258 246.22205223983474) rotate(0 -48.321621884839075 -37.85704505345666)"><path d="M-73.06 -67.99 C-77.54 -68.77, -84.66 -71.72, -96.85 -75.67 M-73.06 -67.99 C-81.41 -71.09, -88.16 -73.01, -96.85 -75.67" stroke="#1971c2" stroke-width="2" fill="none"></path></g><g transform="translate(242.16681778267258 246.22205223983474) rotate(0 -48.321621884839075 -37.85704505345666)"><path d="M-83.57 -54.49 C-85.73 -58.13, -90.63 -63.92, -96.85 -75.67 M-83.57 -54.49 C-88.78 -61.66, -92.29 -67.75, -96.85 -75.67" stroke="#1971c2" stroke-width="2" fill="none"></path></g></g><mask id="mask-hcXsef9JSybObJ-A8tUiV"><rect x="0" y="0" fill="#fff" width="438.8100615523507" height="421.93614234674806"></rect><rect x="127.10106290222802" y="188.36500718637808" fill="#000" width="133.48826599121094" height="40" opacity="1"></rect></mask><g transform="translate(127.10106290222802 188.36500718637808) rotate(0 66.7130126908934 19.650549706071615)"><text x="66.74413299560547" y="0" font-family="Virgil, Segoe UI Emoji" font-size="16px" fill="#1971c2" text-anchor="middle" style="white-space: pre;" direction="ltr" dominant-baseline="text-before-edge">Solutions</text><text x="66.74413299560547" y="20" font-family="Virgil, Segoe UI Emoji" font-size="16px" fill="#1971c2" text-anchor="middle" style="white-space: pre;" direction="ltr" dominant-baseline="text-before-edge">on generic models</text></g><g stroke-linecap="round" transform="translate(33.93169621533593 89.67471451438985) rotate(0 56.83144297563828 36.554707104398176)"><path d="M18.28 0 C37.06 -2.53, 59.28 -1.71, 95.39 0 M18.28 0 C44.66 -0.41, 71.42 0.09, 95.39 0 M95.39 0 C105.96 -1.68, 113.64 6.26, 113.66 18.28 M95.39 0 C106.36 0.19, 114.93 4.7, 113.66 18.28 M113.66 18.28 C114.02 31.49, 113.07 47.12, 113.66 54.83 M113.66 18.28 C114.14 28.69, 114.4 40.54, 113.66 54.83 M113.66 54.83 C114.57 65.67, 106.93 74.3, 95.39 73.11 M113.66 54.83 C114.43 66.91, 106.45 71.49, 95.39 73.11 M95.39 73.11 C65.89 72.25, 34.06 73.5, 18.28 73.11 M95.39 73.11 C79.42 72.42, 61.11 72.08, 18.28 73.11 M18.28 73.11 C4.45 71.71, 1.34 68.59, 0 54.83 M18.28 73.11 C6.43 75.05, 1.92 67.19, 0 54.83 M0 54.83 C-1.21 42.06, 0.7 30.46, 0 18.28 M0 54.83 C-0.49 46.81, 0.29 38, 0 18.28 M0 18.28 C-1.88 5.4, 4.45 -0.4, 18.28 0 M0 18.28 C2.22 6.45, 5.43 -2.08, 18.28 0" stroke="#1971c2" stroke-width="4" fill="none"></path></g><g transform="translate(40.79319900542734 101.22942161878802) rotate(0 49.969940185546875 25)"><text x="49.969940185546875" y="0" font-family="Virgil, Segoe UI Emoji" font-size="20px" fill="#1971c2" text-anchor="middle" style="white-space: pre;" direction="ltr" dominant-baseline="text-before-edge">Sequential</text><text x="49.969940185546875" y="25" font-family="Virgil, Segoe UI Emoji" font-size="20px" fill="#1971c2" text-anchor="middle" style="white-space: pre;" direction="ltr" dominant-baseline="text-before-edge">Equilibrium</text></g><g stroke-linecap="round" transform="translate(236.33139663734596 440.63380096043693) rotate(0 57.828485834859976 42.5)"><path d="M21.25 0 C44.27 1.85, 63.72 2.07, 94.41 0 M21.25 0 C35.81 0.29, 51.91 -0.6, 94.41 0 M94.41 0 C108.42 -0.99, 116.2 8.83, 115.66 21.25 M94.41 0 C107.11 -0.6, 116.47 9.23, 115.66 21.25 M115.66 21.25 C116.55 30.98, 116.23 36.75, 115.66 63.75 M115.66 21.25 C116.47 36.09, 116.2 50.94, 115.66 63.75 M115.66 63.75 C114.53 79.36, 108.39 83.72, 94.41 85 M115.66 63.75 C116.49 78.58, 108.78 82.83, 94.41 85 M94.41 85 C64.8 83.56, 36.98 84.23, 21.25 85 M94.41 85 C73.93 85.28, 53.82 85.29, 21.25 85 M21.25 85 C7.7 83.17, 1.65 79.67, 0 63.75 M21.25 85 C6.38 87.08, 0.62 79.06, 0 63.75 M0 63.75 C1.32 51.12, -1.47 37.36, 0 21.25 M0 63.75 C0.54 48.17, 0.61 32.41, 0 21.25 M0 21.25 C-1.28 7.28, 8.68 0.11, 21.25 0 M0 21.25 C-1.38 4.89, 8.28 -1.79, 21.25 0" stroke="#4dabf7" stroke-width="1" fill="none"></path></g><g transform="translate(245.6899499160536 458.13380096043693) rotate(0 48.469932556152344 25)"><text x="48.469932556152344" y="0" font-family="Virgil, Segoe UI Emoji" font-size="20px" fill="#4dabf7" text-anchor="middle" style="white-space: pre;" direction="ltr" dominant-baseline="text-before-edge">Nash </text><text x="48.469932556152344" y="25" font-family="Virgil, Segoe UI Emoji" font-size="20px" fill="#4dabf7" text-anchor="middle" style="white-space: pre;" direction="ltr" dominant-baseline="text-before-edge">Equilibrium</text></g><g mask="url(#mask-s2S0k6v9CTyYYqxLq3qEn)" stroke-linecap="round"><g transform="translate(295.9424917055948 320.58100531412254) rotate(0 2.370533936874324 54.58701920911176)"><path d="M0.82 -0.9 C1.66 17.35, 3.41 91.89, 3.97 110.06 M-0.2 1.25 C1.11 19.11, 5.73 90.47, 6.27 108.41" stroke="#4dabf7" stroke-width="2" fill="none"></path></g><g transform="translate(295.9424917055948 320.58100531412254) rotate(0 2.370533936874324 54.58701920911176)"><path d="M-3.44 85.37 C-2.76 88.93, 2.29 94.13, 6.27 108.41 M-3.44 85.37 C-1.21 90.76, 1.23 94.78, 6.27 108.41" stroke="#4dabf7" stroke-width="2" fill="none"></path></g><g transform="translate(295.9424917055948 320.58100531412254) rotate(0 2.370533936874324 54.58701920911176)"><path d="M13.63 84.52 C10.69 88.37, 12.1 93.75, 6.27 108.41 M13.63 84.52 C12.25 90.24, 11.07 94.45, 6.27 108.41" stroke="#4dabf7" stroke-width="2" fill="none"></path></g></g><mask id="mask-s2S0k6v9CTyYYqxLq3qEn"><rect x="0" y="0" fill="#fff" width="400.68355957934347" height="529.755043732346"></rect><rect x="233.62488477332852" y="355.1680245232343" fill="#000" width="129.37628173828125" height="40" opacity="1"></rect></mask><g transform="translate(233.62488477332846 355.1680245232344) rotate(0 65.35412769536487 19.99618230685593)"><text x="64.68814086914062" y="0" font-family="Virgil, Segoe UI Emoji" font-size="16px" fill="#4dabf7" text-anchor="middle" style="white-space: pre;" direction="ltr" dominant-baseline="text-before-edge">Solutions for </text><text x="64.68814086914062" y="20" font-family="Virgil, Segoe UI Emoji" font-size="16px" fill="#4dabf7" text-anchor="middle" style="white-space: pre;" direction="ltr" dominant-baseline="text-before-edge">standard models</text></g><g stroke-linecap="round" transform="translate(47.890296244440066 298.1453863150783) rotate(0 74.77821444162929 35)"><path d="M17.5 0 C51.98 2.44, 89.97 2.7, 132.06 0 C141.48 -1.89, 146.13 9.23, 149.56 17.5 C148.48 25.8, 146.53 28.76, 149.56 52.5 C150.08 66.39, 142.55 71.2, 132.06 70 C108.58 67.46, 79.35 72.27, 17.5 70 C5.27 67.54, -0.07 64.79, 0 52.5 C-2.84 45.96, 1.62 35.84, 0 17.5 C2.12 5.1, 8.6 -2.95, 17.5 0" stroke="none" stroke-width="0" fill="#ffffff"></path><path d="M17.5 0 C47.89 -1.53, 81.89 1.38, 132.06 0 M17.5 0 C40.59 -0.56, 63.33 -0.23, 132.06 0 M132.06 0 C143.31 0.71, 150.14 5.9, 149.56 17.5 M132.06 0 C143.13 -1.54, 151.24 8.04, 149.56 17.5 M149.56 17.5 C147.69 32.21, 147.43 43.42, 149.56 52.5 M149.56 17.5 C150.65 30.56, 149.28 44.25, 149.56 52.5 M149.56 52.5 C148.84 62.5, 145.52 68.67, 132.06 70 M149.56 52.5 C151.07 64.28, 143.18 71.4, 132.06 70 M132.06 70 C98.16 72.24, 66.65 70.27, 17.5 70 M132.06 70 C88.94 69.99, 47.43 69.7, 17.5 70 M17.5 70 C4.78 68.08, -0.64 64.42, 0 52.5 M17.5 70 C6.86 71.06, 1.84 66.45, 0 52.5 M0 52.5 C-1.27 40.47, -2.19 27.37, 0 17.5 M0 52.5 C0.12 45.81, -0.45 38.7, 0 17.5 M0 17.5 C1.38 5.48, 6.09 0.53, 17.5 0 M0 17.5 C-0.03 6.1, 4.53 -2.18, 17.5 0" stroke="#228be6" stroke-width="2" fill="none"></path></g><g transform="translate(55.420379887729524 313.1453863150783) rotate(0 67.24813079833984 20)"><text x="67.24813079833984" y="0" font-family="Virgil, Segoe UI Emoji" font-size="16px" fill="#228be6" text-anchor="middle" style="white-space: pre;" direction="ltr" dominant-baseline="text-before-edge">Intermediate </text><text x="67.24813079833984" y="20" font-family="Virgil, Segoe UI Emoji" font-size="16px" fill="#228be6" text-anchor="middle" style="white-space: pre;" direction="ltr" dominant-baseline="text-before-edge">solution concepts</text></g><g stroke-linecap="round" transform="translate(38.916910511444485 663.0630727902293) rotate(0 72.78412872318586 35.8935429319821)"><path d="M17.95 0 C40.14 0.27, 63.99 -1.35, 127.62 0 M17.95 0 C51.56 0.42, 85.78 0.08, 127.62 0 M127.62 0 C141.42 1.13, 144.57 6.95, 145.57 17.95 M127.62 0 C138.2 -2.2, 145.82 5.23, 145.57 17.95 M145.57 17.95 C146.22 30.36, 143.9 44.01, 145.57 53.84 M145.57 17.95 C144.75 31.92, 146.63 46.11, 145.57 53.84 M145.57 53.84 C145.45 66.12, 138.16 70.16, 127.62 71.79 M145.57 53.84 C147.43 66.63, 140.74 70.47, 127.62 71.79 M127.62 71.79 C94.52 73.46, 63.48 72.59, 17.95 71.79 M127.62 71.79 C105.34 70.02, 81.26 70.55, 17.95 71.79 M17.95 71.79 C6.03 71.34, 0.87 67.55, 0 53.84 M17.95 71.79 C3.96 73.23, 1.22 66.28, 0 53.84 M0 53.84 C1.53 39.4, -0.01 27.16, 0 17.95 M0 53.84 C-0.3 40.04, 0.74 28.2, 0 17.95 M0 17.95 C1.88 5.55, 4.05 -0.7, 17.95 0 M0 17.95 C0.18 4.64, 8.05 1.63, 17.95 0" stroke="#846358" stroke-width="2" fill="none"></path></g><g transform="translate(46.201107899181125 673.9566157222115) rotate(0 65.49993133544922 25)"><text x="65.49993133544922" y="0" font-family="Virgil, Segoe UI Emoji" font-size="20px" fill="#846358" text-anchor="middle" style="white-space: pre;" direction="ltr" dominant-baseline="text-before-edge">Allowing </text><text x="65.49993133544922" y="25" font-family="Virgil, Segoe UI Emoji" font-size="20px" fill="#846358" text-anchor="middle" style="white-space: pre;" direction="ltr" dominant-baseline="text-before-edge">communication</text></g><g stroke-linecap="round" transform="translate(248.29591094800685 648.1074299019042) rotate(0 55.83440011641653 54.99999999999994)"><path d="M27.5 0 C40.83 0.8, 56.34 -0.1, 84.17 0 M27.5 0 C41.91 -0.11, 54.71 0.34, 84.17 0 M84.17 0 C101.76 -0.15, 110.15 7.52, 111.67 27.5 M84.17 0 C103.46 0.76, 112.15 7.16, 111.67 27.5 M111.67 27.5 C113.13 43.62, 111.45 55.74, 111.67 82.5 M111.67 27.5 C112.2 46.51, 112.31 64.9, 111.67 82.5 M111.67 82.5 C112.99 100.1, 103.56 110.36, 84.17 110 M111.67 82.5 C110.9 100.59, 103.39 110.25, 84.17 110 M84.17 110 C61.43 108.49, 40.89 109, 27.5 110 M84.17 110 C62.2 109.78, 38.72 110.61, 27.5 110 M27.5 110 C8.6 108.27, 1.5 101.2, 0 82.5 M27.5 110 C9.77 111.02, -0.56 100.6, 0 82.5 M0 82.5 C1.01 64.7, 0.31 43.79, 0 27.5 M0 82.5 C-0.12 69.61, 0.32 57.91, 0 27.5 M0 27.5 C-1.78 8.89, 7.77 -0.75, 27.5 0 M0 27.5 C0 7.13, 8.77 0.06, 27.5 0" stroke="#846358" stroke-width="2" fill="none"></path></g><g transform="translate(255.8303614184273 653.1074299019043) rotate(0 48.299949645996094 50)"><text x="48.299949645996094" y="0" font-family="Virgil, Segoe UI Emoji" font-size="20px" fill="#846358" text-anchor="middle" style="white-space: pre;" direction="ltr" dominant-baseline="text-before-edge">Allowing </text><text x="48.299949645996094" y="25" font-family="Virgil, Segoe UI Emoji" font-size="20px" fill="#846358" text-anchor="middle" style="white-space: pre;" direction="ltr" dominant-baseline="text-before-edge">bargaining</text><text x="48.299949645996094" y="50" font-family="Virgil, Segoe UI Emoji" font-size="20px" fill="#846358" text-anchor="middle" style="white-space: pre;" direction="ltr" dominant-baseline="text-before-edge">and/or </text><text x="48.299949645996094" y="75" font-family="Virgil, Segoe UI Emoji" font-size="20px" fill="#846358" text-anchor="middle" style="white-space: pre;" direction="ltr" dominant-baseline="text-before-edge">exchanges</text></g><g mask="url(#mask-cGjvCBmKg6BBK0UgJsstB)" stroke-linecap="round"><g transform="translate(249.93409355005872 536.5125581885281) rotate(0 -49.55377596560318 57.293000145520296)"><path d="M1.15 0.06 C-15.42 19.08, -83.49 94.21, -100.06 113.44 M0.3 -0.95 C-15.85 18.23, -81.37 95.29, -97.85 114.38" stroke="#846358" stroke-width="2" fill="none"></path></g><g transform="translate(249.93409355005872 536.5125581885281) rotate(0 -49.55377596560318 57.293000145520296)"><path d="M-89.07 90.97 C-91.26 95.25, -95.44 104.01, -97.85 114.38 M-89.07 90.97 C-92.73 100.09, -94.86 108.33, -97.85 114.38" stroke="#846358" stroke-width="2" fill="none"></path></g><g transform="translate(249.93409355005872 536.5125581885281) rotate(0 -49.55377596560318 57.293000145520296)"><path d="M-76.08 102.09 C-81.42 103.75, -88.81 109.76, -97.85 114.38 M-76.08 102.09 C-84.65 107.16, -91.66 111.23, -97.85 114.38" stroke="#846358" stroke-width="2" fill="none"></path></g></g><mask id="mask-cGjvCBmKg6BBK0UgJsstB"><rect x="0" y="0" fill="#fff" width="449.04164548126505" height="751.0985584795687"></rect><rect x="173.0842589296704" y="573.8055583340484" fill="#000" width="54.59211730957031" height="40" opacity="1"></rect></mask><g transform="translate(173.0842589296704 573.8055583340483) rotate(0 27.396530178934327 19.42384751562963)"><text x="27.296058654785156" y="0" font-family="Virgil, Segoe UI Emoji" font-size="16px" fill="#846358" text-anchor="middle" style="white-space: pre;" direction="ltr" dominant-baseline="text-before-edge">players</text><text x="27.296058654785156" y="20" font-family="Virgil, Segoe UI Emoji" font-size="16px" fill="#846358" text-anchor="middle" style="white-space: pre;" direction="ltr" dominant-baseline="text-before-edge">talk</text></g><g mask="url(#mask-qoG_9Dgcbce_DeyG1DfG-)" stroke-linecap="round"><g transform="translate(299.83886533942155 534.8532154084052) rotate(0 -0.9835816898140592 54.29714284150032)"><path d="M0.11 -0.5 C-0.09 17.48, -0.73 89.65, -1.2 107.98 M-1.29 -1.8 C-1.58 16.31, -1.92 90.95, -1.74 109.2" stroke="#846358" stroke-width="2" fill="none"></path></g><g transform="translate(299.83886533942155 534.8532154084052) rotate(0 -0.9835816898140592 54.29714284150032)"><path d="M-10.32 85.72 C-8.54 94.06, -6.15 98.62, -1.74 109.2 M-10.32 85.72 C-7.85 94.67, -3.04 103.07, -1.74 109.2" stroke="#846358" stroke-width="2" fill="none"></path></g><g transform="translate(299.83886533942155 534.8532154084052) rotate(0 -0.9835816898140592 54.29714284150032)"><path d="M6.78 85.7 C3.41 94.06, 0.66 98.62, -1.74 109.2 M6.78 85.7 C2.79 94.77, 1.15 103.18, -1.74 109.2" stroke="#846358" stroke-width="2" fill="none"></path></g></g><mask id="mask-qoG_9Dgcbce_DeyG1DfG-"><rect x="0" y="0" fill="#fff" width="401.80602871904966" height="743.4475010914058"></rect><rect x="262.3032054025372" y="569.1503582499056" fill="#000" width="73.10415649414062" height="40" opacity="1"></rect></mask><g transform="translate(262.3032054025372 569.1503582499055) rotate(0 36.69462298130861 19.40038297214545)"><text x="36.55207824707031" y="0" font-family="Virgil, Segoe UI Emoji" font-size="16px" fill="#846358" text-anchor="middle" style="white-space: pre;" direction="ltr" dominant-baseline="text-before-edge">players</text><text x="36.55207824707031" y="20" font-family="Virgil, Segoe UI Emoji" font-size="16px" fill="#846358" text-anchor="middle" style="white-space: pre;" direction="ltr" dominant-baseline="text-before-edge">negociate</text></g><g mask="url(#mask-6BRDVDbmrJUFMhglT0_hN)" stroke-linecap="round"><g transform="translate(359.9619224622631 534.1065105972663) rotate(0 40.0607010764391 56.12899635220663)"><path d="M-1.05 -0.87 C12.22 17.76, 66.17 92.94, 79.86 111.97 M0.6 1.29 C13.67 20.07, 65.4 94.98, 78.77 113.36" stroke="#846358" stroke-width="2" fill="none"></path></g><g transform="translate(359.9619224622631 534.1065105972663) rotate(0 40.0607010764391 56.12899635220663)"><path d="M58.24 99.1 C63.34 103.38, 70.84 109.93, 78.77 113.36 M58.24 99.1 C65.5 104.25, 73.52 111.15, 78.77 113.36" stroke="#846358" stroke-width="2" fill="none"></path></g><g transform="translate(359.9619224622631 534.1065105972663) rotate(0 40.0607010764391 56.12899635220663)"><path d="M72.21 89.24 C72.89 96.53, 75.95 106.22, 78.77 113.36 M72.21 89.24 C74.06 98.12, 76.63 108.88, 78.77 113.36" stroke="#846358" stroke-width="2" fill="none"></path></g></g><mask id="mask-6BRDVDbmrJUFMhglT0_hN"><rect x="0" y="0" fill="#fff" width="540.0833246151412" height="746.3645033016795"></rect><rect x="342.9024987218076" y="570.2355069494729" fill="#000" width="114.24024963378906" height="40" opacity="1"></rect></mask><g transform="translate(342.9024987218077 570.2355069494729) rotate(0 56.46299782171846 20.116788775199097)"><text x="57.12012481689453" y="0" font-family="Virgil, Segoe UI Emoji" font-size="16px" fill="#846358" text-anchor="middle" style="white-space: pre;" direction="ltr" dominant-baseline="text-before-edge">game repeats </text><text x="57.12012481689453" y="20" font-family="Virgil, Segoe UI Emoji" font-size="16px" fill="#846358" text-anchor="middle" style="white-space: pre;" direction="ltr" dominant-baseline="text-before-edge">itself</text></g><g stroke-linecap="round" transform="translate(431.4669843318351 657.9109064182055) rotate(0 59.32405012369253 33.56357852673278)"><path d="M16.78 0 C44.23 0.84, 66.35 0.46, 101.87 0 M16.78 0 C47.07 -0.14, 78.93 -0.46, 101.87 0 M101.87 0 C114.9 -0.9, 116.98 6.42, 118.65 16.78 M101.87 0 C111.22 -1.91, 118.02 3.31, 118.65 16.78 M118.65 16.78 C116.97 28.94, 117.11 40.78, 118.65 50.35 M118.65 16.78 C119.37 29.7, 117.67 43.4, 118.65 50.35 M118.65 50.35 C118.91 61.77, 113.52 67.54, 101.87 67.13 M118.65 50.35 C118.96 61.95, 113.57 65.72, 101.87 67.13 M101.87 67.13 C74.85 65.39, 50.41 67.69, 16.78 67.13 M101.87 67.13 C68.9 66.41, 35.75 67.39, 16.78 67.13 M16.78 67.13 C4.86 68.65, -0.29 62.07, 0 50.35 M16.78 67.13 C6.05 68.57, 1.55 62.46, 0 50.35 M0 50.35 C1.46 39.57, -0.7 28.42, 0 16.78 M0 50.35 C-0.67 40.54, 0.71 31.93, 0 16.78 M0 16.78 C-1.46 5.92, 5.38 0.73, 16.78 0 M0 16.78 C1.33 3.38, 7.71 -2.25, 16.78 0" stroke="#846358" stroke-width="2" fill="none"></path></g><g transform="translate(442.25109457515646 678.9744849449384) rotate(0 48.539939880371094 12.5)"><text x="48.539939880371094" y="0" font-family="Virgil, Segoe UI Emoji" font-size="20px" fill="#846358" text-anchor="middle" style="white-space: pre;" direction="ltr" dominant-baseline="text-before-edge">Repetition</text></g><g stroke-linecap="round"><g transform="translate(395.6018028957292 254.34550182484327) rotate(0 5.613214082871821 131.59868572066028)"><path d="M-0.84 -0.69 C1.14 21.33, 10.79 87.74, 10.96 131.67 C11.12 175.61, 1.88 240.84, 0.12 262.94 M0.91 1.56 C2.8 23.77, 10.11 89.16, 9.86 132.92 C9.62 176.68, 0.92 242.56, -0.59 264.12" stroke="#f08c00" stroke-width="1" fill="none"></path></g></g><mask></mask><g mask="url(#mask-ZWhOQxj1Q122W1GrQVJOO)" stroke-linecap="round"><g transform="translate(406.8282310614727 420.247162496387) rotate(0 84.19821124307651 34.926665404535356)"><path d="M-0.06 -1.35 C12.39 3.4, 48.57 15.45, 76.88 27.78 C105.2 40.11, 154.24 65.68, 169.85 72.63 M-3.53 4.09 C8.3 9.19, 45.67 19.49, 74.4 30.24 C103.13 41, 152.52 61.67, 168.84 68.6" stroke="#f08c00" stroke-width="4" fill="none"></path></g><g transform="translate(406.8282310614727 420.247162496387) rotate(0 84.19821124307651 34.926665404535356)"><path d="M142.9 67.06 C151.79 68.89, 164.77 69.84, 168.55 67.26 M143.01 68.13 C150.79 68.18, 156.82 67.4, 168.54 67.7" stroke="#f08c00" stroke-width="4" fill="none"></path></g><g transform="translate(406.8282310614727 420.247162496387) rotate(0 84.19821124307651 34.926665404535356)"><path d="M149.52 51.3 C155.86 59.1, 166.33 66.03, 168.55 67.26 M149.63 52.36 C155.89 56.14, 160.34 59.14, 168.54 67.7" stroke="#f08c00" stroke-width="4" fill="none"></path></g></g><mask id="mask-ZWhOQxj1Q122W1GrQVJOO"><rect x="0" y="0" fill="#fff" width="675.2246535476257" height="590.1004933054577"></rect><rect x="438.5337519774587" y="430.18430427170256" fill="#000" width="91.26419067382812" height="40" opacity="1"></rect></mask><g transform="translate(438.5337519774587 430.1843042717028) rotate(0 51.45650525010876 25.700518743814314)"><text x="45.63209533691406" y="0" font-family="Virgil, Segoe UI Emoji" font-size="16px" fill="#f08c00" text-anchor="middle" style="white-space: pre;" direction="ltr" dominant-baseline="text-before-edge">Application </text><text x="45.63209533691406" y="20" font-family="Virgil, Segoe UI Emoji" font-size="16px" fill="#f08c00" text-anchor="middle" style="white-space: pre;" direction="ltr" dominant-baseline="text-before-edge">to auctions</text></g><g stroke-linecap="round" transform="translate(576.4720344549305 498.8321596565912) rotate(0 64.24011672619912 43.03464130201678)"><path d="M21.52 0 C38.87 -4.72, 59.12 -3.38, 106.96 0 C124.31 -3.33, 132.44 10.35, 128.48 21.52 C130.53 37.76, 124.09 55.04, 128.48 64.55 C123.17 81.31, 119.98 81.22, 106.96 86.07 C80.4 87.07, 55.85 80.81, 21.52 86.07 C2.41 81.66, -4.19 79.59, 0 64.55 C-5.22 58.37, 5.51 40.42, 0 21.52 C3.58 11.52, 4.87 4.8, 21.52 0" stroke="none" stroke-width="0" fill="#ffffff"></path><path d="M21.52 0 C46.21 -0.56, 72.6 -0.1, 106.96 0 M21.52 0 C52.51 -2.92, 88.65 -2.83, 106.96 0 M106.96 0 C118.55 3.92, 129.7 10.08, 128.48 21.52 M106.96 0 C122.27 2.98, 130.04 7.57, 128.48 21.52 M128.48 21.52 C125.77 33.75, 124.4 48.58, 128.48 64.55 M128.48 21.52 C127.78 36.48, 129.3 53.24, 128.48 64.55 M128.48 64.55 C130.94 77.03, 118.64 83.92, 106.96 86.07 M128.48 64.55 C124.64 82.9, 125.69 82.52, 106.96 86.07 M106.96 86.07 C91.09 89.68, 72.76 88.54, 21.52 86.07 M106.96 86.07 C81.92 85.55, 60.18 84.84, 21.52 86.07 M21.52 86.07 C6.25 84.28, 1.24 79.99, 0 64.55 M21.52 86.07 C8.4 90.23, -4.31 83.43, 0 64.55 M0 64.55 C1.51 50.74, -0.27 33.84, 0 21.52 M0 64.55 C1.15 49, -2 37.17, 0 21.52 M0 21.52 C1.05 4.82, 7.89 1.97, 21.52 0 M0 21.52 C-1.91 8.8, 5.16 2.49, 21.52 0" stroke="#f08c00" stroke-width="4" fill="none"></path></g><g transform="translate(594.0622106904069 504.366800958608) rotate(0 46.649940490722656 37.5)"><text x="46.649940490722656" y="0" font-family="Virgil, Segoe UI Emoji" font-size="20px" fill="#f08c00" text-anchor="middle" style="white-space: pre;" direction="ltr" dominant-baseline="text-before-edge">Efficient </text><text x="46.649940490722656" y="25" font-family="Virgil, Segoe UI Emoji" font-size="20px" fill="#f08c00" text-anchor="middle" style="white-space: pre;" direction="ltr" dominant-baseline="text-before-edge">auction </text><text x="46.649940490722656" y="50" font-family="Virgil, Segoe UI Emoji" font-size="20px" fill="#f08c00" text-anchor="middle" style="white-space: pre;" direction="ltr" dominant-baseline="text-before-edge">designs</text></g><g mask="url(#mask-pmlFjbFbZOS4fm1H_ev_N)" stroke-linecap="round"><g transform="translate(420.96191566515506 355.2960506555929) rotate(0 95.41960021009885 -27.470067953621083)"><path d="M-2.63 -2.07 C15.1 -1.8, 72.68 12.59, 105.26 3.63 C137.84 -5.33, 178.24 -45.71, 192.84 -55.83 M1.14 2.98 C18.53 2.33, 70.77 9.17, 102.6 -0.08 C134.43 -9.34, 176.79 -43.38, 192.12 -52.53" stroke="#f08c00" stroke-width="4" fill="none"></path></g><g transform="translate(420.96191566515506 355.2960506555929) rotate(0 95.41960021009885 -27.470067953621083)"><path d="M176 -32.82 C182.84 -35.96, 185.19 -41.17, 191.48 -53.49 M177.43 -32.31 C180.54 -37.2, 186.07 -43.05, 191.58 -53.14" stroke="#f08c00" stroke-width="4" fill="none"></path></g><g transform="translate(420.96191566515506 355.2960506555929) rotate(0 95.41960021009885 -27.470067953621083)"><path d="M166.4 -46.97 C175.83 -46.35, 180.68 -47.89, 191.48 -53.49 M167.83 -46.46 C173.34 -47.58, 181.37 -49.73, 191.58 -53.14" stroke="#f08c00" stroke-width="4" fill="none"></path></g></g><mask id="mask-pmlFjbFbZOS4fm1H_ev_N"><rect x="0" y="0" fill="#fff" width="711.8011160853528" height="512.7309483774444"></rect><rect x="450.6771208500312" y="336.54343156289747" fill="#000" width="152.6243438720703" height="40" opacity="1"></rect></mask><g transform="translate(450.6771208500312 336.5434315628976) rotate(0 65.3919578477732 -5.879444031074115)"><text x="76.31217193603516" y="0" font-family="Virgil, Segoe UI Emoji" font-size="16px" fill="#f08c00" text-anchor="middle" style="white-space: pre;" direction="ltr" dominant-baseline="text-before-edge">Lending insights to </text><text x="76.31217193603516" y="20" font-family="Virgil, Segoe UI Emoji" font-size="16px" fill="#f08c00" text-anchor="middle" style="white-space: pre;" direction="ltr" dominant-baseline="text-before-edge">Biology</text></g><g stroke-linecap="round" transform="translate(631.9804848299955 217.5477650593508) rotate(0 67.98225944811367 43.03464130201678)"><path d="M21.52 0 C55.16 7.05, 89.8 3.83, 114.45 0 C126.63 2.65, 131.49 3.48, 135.96 21.52 C133.33 38.74, 132.99 58.33, 135.96 64.55 C138.94 79.76, 131.88 81.89, 114.45 86.07 C83.69 85.83, 57.49 90.29, 21.52 86.07 C1.86 90.59, 1.5 73.38, 0 64.55 C1.62 48.73, 0.49 47.39, 0 21.52 C3.38 8.35, 9.37 -3.61, 21.52 0" stroke="none" stroke-width="0" fill="#ffffff"></path><path d="M21.52 0 C56.7 -3.07, 91.51 -3.34, 114.45 0 M21.52 0 C58.22 0.81, 91.19 -0.53, 114.45 0 M114.45 0 C131.83 3.13, 137.33 6.21, 135.96 21.52 M114.45 0 C130.77 2.16, 134.42 6.73, 135.96 21.52 M135.96 21.52 C138.06 38.26, 136.05 51.34, 135.96 64.55 M135.96 21.52 C134.84 32.6, 136.24 43.43, 135.96 64.55 M135.96 64.55 C138.85 79.54, 130.1 86.19, 114.45 86.07 M135.96 64.55 C132.14 79.22, 131.55 82.43, 114.45 86.07 M114.45 86.07 C93.01 83.23, 74.47 84.36, 21.52 86.07 M114.45 86.07 C88.31 89.26, 63.97 87.17, 21.52 86.07 M21.52 86.07 C9.83 86.41, -2.05 77.23, 0 64.55 M21.52 86.07 C4.55 89.52, -1.72 80.74, 0 64.55 M0 64.55 C2.19 55.28, 2.94 41.45, 0 21.52 M0 64.55 C-1.12 51.64, 0.02 39.4, 0 21.52 M0 21.52 C2.12 10.71, 10.76 -3.92, 21.52 0 M0 21.52 C-4.08 10.4, 3.25 2.57, 21.52 0" stroke="#f08c00" stroke-width="4" fill="none"></path></g><g transform="translate(640.4328141633631 223.0824063613676) rotate(0 59.529930114746094 37.5)"><text x="59.529930114746094" y="0" font-family="Virgil, Segoe UI Emoji" font-size="20px" fill="#f08c00" text-anchor="middle" style="white-space: pre;" direction="ltr" dominant-baseline="text-before-edge">Evolutionary</text><text x="59.529930114746094" y="25" font-family="Virgil, Segoe UI Emoji" font-size="20px" fill="#f08c00" text-anchor="middle" style="white-space: pre;" direction="ltr" dominant-baseline="text-before-edge">Game </text><text x="59.529930114746094" y="50" font-family="Virgil, Segoe UI Emoji" font-size="20px" fill="#f08c00" text-anchor="middle" style="white-space: pre;" direction="ltr" dominant-baseline="text-before-edge">Theory</text></g><g transform="translate(226.57436617044294 27.5) rotate(0 5.4499969482421875 12.5)"><text x="5.4499969482421875" y="0" font-family="Virgil, Segoe UI Emoji" font-size="20px" fill="#e03131" text-anchor="middle" style="white-space: pre;" direction="ltr" dominant-baseline="text-before-edge">1.</text></g><g transform="translate(222.80410627417524 268.19929094525355) rotate(0 9.859992980957031 12.5)"><text x="9.859992980957031" y="0" font-family="Virgil, Segoe UI Emoji" font-size="20px" fill="#1e1e1e" text-anchor="middle" style="white-space: pre;" direction="ltr" dominant-baseline="text-before-edge">2.</text></g><g transform="translate(213.47921559443324 470.63380096043693) rotate(0 9.54998779296875 12.5)"><text x="9.54998779296875" y="0" font-family="Virgil, Segoe UI Emoji" font-size="20px" fill="#1971c2" text-anchor="middle" style="white-space: pre;" direction="ltr" dominant-baseline="text-before-edge">3.</text></g><g transform="translate(10 112.06448749211813) rotate(0 9.139991760253906 12.5)"><text x="9.139991760253906" y="0" font-family="Virgil, Segoe UI Emoji" font-size="20px" fill="#1971c2" text-anchor="middle" style="white-space: pre;" direction="ltr" dominant-baseline="text-before-edge">4.</text></g><g transform="translate(26.199564530565397 320.9994127682586) rotate(0 8.919990539550781 12.5)"><text x="8.919990539550781" y="0" font-family="Virgil, Segoe UI Emoji" font-size="20px" fill="#1971c2" text-anchor="middle" style="white-space: pre;" direction="ltr" dominant-baseline="text-before-edge">5.</text></g><g transform="translate(14.99623534655359 685.7541724866056) rotate(0 9.139991760253906 12.5)"><text x="9.139991760253906" y="0" font-family="Virgil, Segoe UI Emoji" font-size="20px" fill="#846358" text-anchor="middle" style="white-space: pre;" direction="ltr" dominant-baseline="text-before-edge">6.</text></g><g transform="translate(227.90221677095695 690.7514834484297) rotate(0 8.1199951171875 12.5)"><text x="8.1199951171875" y="0" font-family="Virgil, Segoe UI Emoji" font-size="20px" fill="#846358" text-anchor="middle" style="white-space: pre;" direction="ltr" dominant-baseline="text-before-edge">7.</text></g><g transform="translate(405.53595256118894 679.7573993324171) rotate(0 10.389991760253906 12.5)"><text x="10.389991760253906" y="0" font-family="Virgil, Segoe UI Emoji" font-size="20px" fill="#846358" text-anchor="middle" style="white-space: pre;" direction="ltr" dominant-baseline="text-before-edge">8.</text></g><g transform="translate(552.0174302050431 529.8380704776974) rotate(0 8.829994201660156 12.5)"><text x="8.829994201660156" y="0" font-family="Virgil, Segoe UI Emoji" font-size="20px" fill="#f08c00" text-anchor="middle" style="white-space: pre;" direction="ltr" dominant-baseline="text-before-edge">9.</text></g><g transform="translate(602.4867751698365 249.98865661555453) rotate(0 12.329994201660156 12.5)"><text x="12.329994201660156" y="0" font-family="Virgil, Segoe UI Emoji" font-size="20px" fill="#f08c00" text-anchor="middle" style="white-space: pre;" direction="ltr" dominant-baseline="text-before-edge">10.</text></g></svg>